<?xml version="1.0" encoding="UTF-8"?>
<svg width="21px" height="21px" viewBox="0 0 21 21" version="1.1" xmlns="http://www.w3.org/2000/svg" xmlns:xlink="http://www.w3.org/1999/xlink">
    <!-- Generator: Sketch 49.1 (51147) - http://www.bohemiancoding.com/sketch -->
    <title>Glyph / Notification / Success / Colour Copy 2</title>
    <desc>Created with Sketch.</desc>
    <defs></defs>
    <g id="10.-My-AAT-Dashboard" stroke="none" stroke-width="1" fill="none" fill-rule="evenodd">
        <g id="myaat-dashboard-student-1440" transform="translate(-974.000000, -1193.000000)">
            <g id="My-Progress" transform="translate(320.000000, 913.000000)">
                <g id="Glyph-/-Notification-/-Success-/-Colour-Copy-2" transform="translate(650.000000, 276.000000)">
                    <circle id="Combined-Shape" fill="#F5A623" transform="translate(14.142136, 14.142136) rotate(-45.000000) translate(-14.142136, -14.142136) " cx="14.1421356" cy="14.1421356" r="10"></circle>
                    <g id="noun_1456091_cc" transform="translate(9.000000, 8.000000)" fill="#000000" fill-rule="nonzero">
                        <path d="M8.60373773,3.10373444 C8.86446766,2.70124074 9.00098422,2.234725 8.99714919,1.7593361 L8.99714919,0.995850622 L9.30503643,0.995850622 C9.5884388,0.995850622 9.81818182,0.772921867 9.81818182,0.497925311 C9.81818182,0.222928755 9.5884388,0 9.30503643,0 L0.513145391,0 C0.229743017,0 0,0.222928755 0,0.497925311 C0,0.772921867 0.229743017,0.995850622 0.513145391,0.995850622 L0.821032626,0.995850622 L0.821032626,1.7593361 C0.817197595,2.234725 0.95371416,2.70124074 1.21444409,3.10373444 L2.41178334,4.92946058 C2.84073526,5.58246685 2.84073526,6.41753315 2.41178334,7.07053942 L1.21444409,8.89626556 C0.95371416,9.29875926 0.817197595,9.765275 0.821032626,10.2406639 L0.821032626,11.0041494 L0.513145391,11.0041494 C0.229743017,11.0041494 0,11.2270781 0,11.5020747 C0,11.7770712 0.229743017,12 0.513145391,12 L9.30503643,12 C9.5884388,12 9.81818182,11.7770712 9.81818182,11.5020747 C9.81818182,11.2270781 9.5884388,11.0041494 9.30503643,11.0041494 L8.99714919,11.0041494 L8.99714919,10.2240664 C9.00098422,9.74867749 8.86446766,9.28216175 8.60373773,8.87966805 L7.40639848,7.05394191 C6.97744656,6.40093564 6.97744656,5.56586934 7.40639848,4.91286307 L8.60373773,3.10373444 Z M6.53405131,7.60165975 L7.73139056,9.42738589 C7.88715842,9.66566851 7.97018548,9.94188947 7.97085841,10.2240664 L7.97085841,10.9875519 L1.84732341,10.9875519 L1.84732341,10.2240664 C1.84799634,9.94188947 1.9310234,9.66566851 2.08679126,9.42738589 L3.2841305,7.60165975 C3.91975009,6.62295077 3.91975009,5.37704923 3.2841305,4.39834025 L2.08679126,2.57261411 C1.9310234,2.33433149 1.84799634,2.05811053 1.84732341,1.77593361 L1.84732341,0.995850622 L7.97085841,0.995850622 L7.97085841,1.7593361 C7.97018548,2.04151302 7.88715842,2.31773398 7.73139056,2.5560166 L6.53405131,4.38174274 C5.89121953,5.36442116 5.89121953,6.61898133 6.53405131,7.60165975 Z" id="Shape"></path>
                    </g>
                </g>
            </g>
        </g>
    </g>
</svg>